<svg xmlns="http://www.w3.org/2000/svg" viewBox="0 0 1600 640" width="1600" height="640" role="img" aria-label="Page hero · service areas placeholder">
  <defs><pattern id="h" width="20" height="20" patternUnits="userSpaceOnUse" patternTransform="rotate(45)"><rect width="20" height="20" fill="#EDE9E5"/><rect width="10" height="20" fill="#E4DFD9"/></pattern></defs>
  <rect width="1600" height="640" fill="url(#h)"/>
  <rect x="1.5" y="1.5" width="1597" height="637" fill="none" stroke="#D3CBC3" stroke-width="3"/>
  <rect x="0" y="0" width="10" height="640" fill="#D21217"/>
  <g transform="translate(1130,63) scale(0.640)" fill="#C2B8AE"><path d="M8 20h26l10-12h32l10 12h26a8 8 0 0 1 8 8v52a8 8 0 0 1-8 8H8a8 8 0 0 1-8-8V28a8 8 0 0 1 8-8Z"/><circle cx="60" cy="56" r="22" fill="#EDE9E5"/><circle cx="60" cy="56" r="12" fill="#C2B8AE"/></g>
  <text x="1168" y="222" text-anchor="middle" font-family="Helvetica,Arial,sans-serif" font-size="41" font-weight="700" letter-spacing="4.1" fill="#D21217">PAGE HERO · SERVICE AREAS</text>
  <text x="1168" y="302" text-anchor="middle" font-family="Helvetica,Arial,sans-serif" font-size="44" fill="#6E655C">Wrapped van parked on a</text>
  <text x="1168" y="368" text-anchor="middle" font-family="Helvetica,Arial,sans-serif" font-size="44" fill="#6E655C">recognisable local street. Low</text>
  <text x="1168" y="434" text-anchor="middle" font-family="Helvetica,Arial,sans-serif" font-size="44" fill="#6E655C">angle so the logo and phone</text>
  <text x="1168" y="500" text-anchor="middle" font-family="Helvetica,Arial,sans-serif" font-size="44" fill="#6E655C">number read clearly at a glance.</text>
  <text x="1168" y="566" text-anchor="middle" font-family="Helvetica,Arial,sans-serif" font-size="36" letter-spacing="2" fill="#A79C91">1600 × 640</text>
</svg>
